<svg width="228" height="78" viewBox="0 0 228 78" fill="none" xmlns="http://www.w3.org/2000/svg">
<path d="M17.7552 16.6895C17.7552 16.1427 17.9813 15.6183 18.3837 15.2317C18.7861 14.8451 19.3319 14.6279 19.901 14.6279H31.3452C31.9143 14.6279 32.4601 14.8451 32.8625 15.2317C33.2649 15.6183 33.491 16.1427 33.491 16.6895C33.491 17.2363 33.2649 17.7607 32.8625 18.1473C32.4601 18.5339 31.9143 18.7511 31.3452 18.7511H19.901C19.3319 18.7511 18.7861 18.5339 18.3837 18.1473C17.9813 17.7607 17.7552 17.2363 17.7552 16.6895ZM19.901 25.6233H31.3452C31.9143 25.6233 32.4601 25.4061 32.8625 25.0194C33.2649 24.6328 33.491 24.1084 33.491 23.5616C33.491 23.0149 33.2649 22.4905 32.8625 22.1038C32.4601 21.7172 31.9143 21.5 31.3452 21.5H19.901C19.3319 21.5 18.7861 21.7172 18.3837 22.1038C17.9813 22.4905 17.7552 23.0149 17.7552 23.5616C17.7552 24.1084 17.9813 24.6328 18.3837 25.0194C18.7861 25.4061 19.3319 25.6233 19.901 25.6233ZM40.6436 10.5046V40.742C40.6436 41.6533 40.2668 42.5273 39.5962 43.1717C38.9255 43.8161 38.0158 44.1781 37.0673 44.1781H14.1789C13.2304 44.1781 12.3207 43.8161 11.65 43.1717C10.9793 42.5273 10.6025 41.6533 10.6025 40.742V10.5046C10.6025 9.59326 10.9793 8.71928 11.65 8.0749C12.3207 7.43051 13.2304 7.06849 14.1789 7.06849H37.0673C38.0158 7.06849 38.9255 7.43051 39.5962 8.0749C40.2668 8.71928 40.6436 9.59326 40.6436 10.5046ZM36.3521 11.1918H14.8941V40.0548H36.3521V11.1918ZM25.6231 32.4954C25.0572 32.4954 24.5041 32.6567 24.0336 32.9587C23.5631 33.2607 23.1964 33.6901 22.9798 34.1923C22.7633 34.6946 22.7066 35.2473 22.817 35.7806C22.9274 36.3138 23.1999 36.8036 23.6 37.188C24.0001 37.5725 24.5099 37.8343 25.0649 37.9403C25.6199 38.0464 26.1952 37.992 26.718 37.7839C27.2408 37.5759 27.6876 37.2235 28.002 36.7715C28.3163 36.3194 28.4841 35.788 28.4841 35.2443C28.4841 34.5152 28.1827 33.8161 27.6462 33.3006C27.1096 32.785 26.3819 32.4954 25.6231 32.4954Z" fill="white"/>
<path d="M60.9661 38.8767H70.0962ZM60.9661 38.8767H51.8359Z" fill="white"/>
<path d="M70.0962 38.8767H60.9661H51.8359" stroke="white" stroke-width="5" stroke-linecap="round" stroke-linejoin="round"/>
<path d="M60.6714 38.8767V31.8082Z" fill="white"/>
<path d="M60.6714 38.8767V31.8082" stroke="white" stroke-width="5" stroke-linecap="round" stroke-linejoin="round"/>
<path d="M60.6714 31.8082H44.1782V9.42466H77.1645V31.8082H60.6714Z" stroke="white" stroke-width="5" stroke-linecap="round" stroke-linejoin="round"/>
<path d="M76.3786 42.3128H44.9631C42.8033 42.3128 41.0361 43.8811 41.0361 45.7979V66.7089C41.0361 68.6257 42.8033 70.1941 44.9631 70.1941H76.3786C78.5384 70.1941 80.3055 68.6257 80.3055 66.7089V45.7979C80.3055 43.8811 78.5384 42.3128 76.3786 42.3128ZM44.9631 45.7979H64.5978V66.7089H44.9631V45.7979ZM76.3786 66.7089H68.5247V45.7979H76.3786V66.7089ZM74.4151 51.0257H70.4882V47.5405H74.4151V51.0257ZM72.4517 57.996C71.3717 57.996 70.4882 57.2118 70.4882 56.2534C70.4882 55.295 71.3717 54.5108 72.4517 54.5108C73.5316 54.5108 74.4151 55.295 74.4151 56.2534C74.4151 57.2118 73.5316 57.996 72.4517 57.996ZM72.4517 64.9663C71.3717 64.9663 70.4882 64.1822 70.4882 63.2237C70.4882 62.2653 71.3717 61.4812 72.4517 61.4812C73.5316 61.4812 74.4151 62.2653 74.4151 63.2237C74.4151 64.1822 73.5316 64.9663 72.4517 64.9663ZM57.2348 63.2237C55.6836 63.2237 54.5448 62.5616 53.7202 62.0736C53.0722 61.6903 52.6991 61.4812 52.3261 61.4812C51.5996 61.4812 50.7553 62.1956 50.4608 62.5441L47.6727 60.0697C48.3599 59.3726 50.0485 57.996 52.3261 57.996C53.8969 57.996 55.0553 58.6756 55.88 59.1635C56.4886 59.5295 56.8813 59.7386 57.2348 59.7386C57.9612 59.7386 58.8055 59.0241 59.1001 58.6756L61.8882 61.1501C61.1813 61.8471 59.5124 63.2237 57.2348 63.2237ZM57.2348 54.5108C55.6836 54.5108 54.5448 53.8487 53.7202 53.3607C53.0722 52.9774 52.6991 52.7683 52.3261 52.7683C51.5996 52.7683 50.7553 53.4827 50.4608 53.8312L47.653 51.3568C48.3599 50.6597 50.0485 49.2831 52.3261 49.2831C53.8969 49.2831 55.0553 49.9627 55.88 50.4506C56.4886 50.8166 56.8813 51.0257 57.2348 51.0257C57.9612 51.0257 58.8055 50.3112 59.1001 49.9627L61.8882 52.4372C61.1813 53.1342 59.5124 54.5108 57.2348 54.5108Z" fill="white"/>
<path d="M20.529 52.5965C21.692 52.5965 22.6336 53.5381 22.6336 54.7011V66.126C22.6336 66.6842 22.4119 67.2195 22.0172 67.6142C21.6225 68.0089 21.0872 68.2306 20.529 68.2306H15.1124C14.5542 68.2306 14.0189 68.0089 13.6242 67.6142C13.2295 67.2195 13.0078 66.6842 13.0078 66.126V54.7011C13.0078 53.5381 13.9507 52.5965 15.1124 52.5965H20.529ZM18.1214 64.0154H17.5201L17.3974 64.0238C17.1815 64.0535 16.9837 64.1604 16.8405 64.3246C16.6973 64.4889 16.6184 64.6994 16.6184 64.9174C16.6184 65.1353 16.6973 65.3458 16.8405 65.5101C16.9837 65.6743 17.1815 65.7812 17.3974 65.8109L17.5201 65.8193H18.1214L18.244 65.8109C18.4599 65.7812 18.6578 65.6743 18.801 65.5101C18.9442 65.3458 19.0231 65.1353 19.0231 64.9174C19.0231 64.6994 18.9442 64.4889 18.801 64.3246C18.6578 64.1604 18.4599 64.0535 18.244 64.0238L18.1214 64.0154ZM34.3544 48.9886C35.0401 48.9885 35.7002 49.2487 36.2014 49.7166C36.7025 50.1845 37.0074 50.8252 37.0543 51.5093L37.0603 51.6945V61.9168C37.0604 62.6025 36.8002 63.2626 36.3323 63.7637C35.8644 64.2649 35.2237 64.5698 34.5396 64.6167L34.3544 64.6227H23.8314V54.4004C23.8316 53.6373 23.5415 52.9026 23.0201 52.3454C22.4986 51.7883 21.7848 51.4502 21.0233 51.3998L20.8237 51.3938H17.8339C17.9041 50.7661 18.1917 50.1828 18.6468 49.7448C19.1019 49.3068 19.6959 49.0419 20.3258 48.9958L20.5242 48.9886H34.3544ZM28.9426 60.4135H25.936C25.7076 60.4139 25.4878 60.5009 25.3211 60.657C25.1543 60.8131 25.053 61.0267 25.0376 61.2546C25.0222 61.4825 25.0938 61.7078 25.238 61.8849C25.3822 62.0621 25.5883 62.1779 25.8146 62.209L25.936 62.2175H28.9426C29.1711 62.2174 29.3911 62.1306 29.5581 61.9746C29.7251 61.8186 29.8266 61.605 29.8422 61.377C29.8578 61.149 29.7862 60.9236 29.642 60.7463C29.4978 60.569 29.2917 60.4531 29.0653 60.4219L28.9426 60.4135Z" fill="white"/>
<path d="M96.52 24.296C98.28 24.488 99.688 24.8 100.744 25.232C101.816 25.664 102.592 26.232 103.072 26.936C103.552 27.64 103.792 28.52 103.792 29.576C103.792 30.728 103.416 31.736 102.664 32.6C101.928 33.448 100.904 34.104 99.592 34.568C98.28 35.016 96.784 35.24 95.104 35.24C93.232 35.24 91.648 35.008 90.352 34.544C89.056 34.08 88.088 33.464 87.448 32.696C86.808 31.912 86.488 31.056 86.488 30.128C86.488 29.968 86.536 29.84 86.632 29.744C86.744 29.648 86.88 29.6 87.04 29.6H91.96C92.296 29.6 92.568 29.704 92.776 29.912C93.048 30.168 93.352 30.344 93.688 30.44C94.024 30.52 94.496 30.56 95.104 30.56C96.624 30.56 97.384 30.328 97.384 29.864C97.384 29.672 97.28 29.512 97.072 29.384C96.88 29.24 96.528 29.12 96.016 29.024C95.52 28.912 94.784 28.8 93.808 28.688C91.616 28.432 89.936 27.888 88.768 27.056C87.6 26.208 87.016 25.016 87.016 23.48C87.016 22.392 87.344 21.432 88 20.6C88.656 19.768 89.584 19.12 90.784 18.656C92 18.192 93.408 17.96 95.008 17.96C96.672 17.96 98.128 18.224 99.376 18.752C100.624 19.264 101.576 19.904 102.232 20.672C102.888 21.44 103.216 22.192 103.216 22.928C103.216 23.088 103.16 23.216 103.048 23.312C102.952 23.408 102.816 23.456 102.64 23.456H97.48C97.208 23.456 96.96 23.36 96.736 23.168C96.56 23.008 96.352 22.88 96.112 22.784C95.872 22.688 95.504 22.64 95.008 22.64C93.936 22.64 93.4 22.864 93.4 23.312C93.4 23.552 93.608 23.744 94.024 23.888C94.44 24.016 95.272 24.152 96.52 24.296ZM123.367 30.32C123.543 30.32 123.695 30.384 123.823 30.512C123.951 30.64 124.015 30.792 124.015 30.968V34.352C124.015 34.528 123.951 34.68 123.823 34.808C123.695 34.936 123.543 35 123.367 35H108.199C108.023 35 107.871 34.936 107.743 34.808C107.615 34.68 107.551 34.528 107.551 34.352V18.848C107.551 18.672 107.615 18.52 107.743 18.392C107.871 18.264 108.023 18.2 108.199 18.2H123.127C123.303 18.2 123.455 18.264 123.583 18.392C123.711 18.52 123.775 18.672 123.775 18.848V22.232C123.775 22.408 123.711 22.56 123.583 22.688C123.455 22.816 123.303 22.88 123.127 22.88H113.791V24.392H121.807C121.983 24.392 122.135 24.456 122.263 24.584C122.391 24.712 122.455 24.864 122.455 25.04V28.16C122.455 28.336 122.391 28.488 122.263 28.616C122.135 28.744 121.983 28.808 121.807 28.808H113.791V30.32H123.367ZM145.509 34.256C145.541 34.32 145.557 34.392 145.557 34.472C145.557 34.616 145.501 34.744 145.389 34.856C145.293 34.952 145.173 35 145.029 35H139.581C139.357 35 139.149 34.944 138.957 34.832C138.781 34.72 138.653 34.576 138.573 34.4L136.461 29.648H134.445V34.352C134.445 34.528 134.381 34.68 134.253 34.808C134.125 34.936 133.973 35 133.797 35H128.613C128.437 35 128.285 34.936 128.157 34.808C128.029 34.68 127.965 34.528 127.965 34.352V18.848C127.965 18.672 128.029 18.52 128.157 18.392C128.285 18.264 128.437 18.2 128.613 18.2H137.949C139.389 18.2 140.645 18.432 141.717 18.896C142.805 19.36 143.637 20.032 144.213 20.912C144.789 21.792 145.077 22.824 145.077 24.008C145.077 26.184 144.237 27.76 142.557 28.736L145.509 34.256ZM137.445 25.208C137.797 25.208 138.069 25.096 138.261 24.872C138.453 24.632 138.549 24.336 138.549 23.984C138.549 23.632 138.453 23.328 138.261 23.072C138.085 22.8 137.813 22.664 137.445 22.664H134.445V25.208H137.445ZM165.276 18.2C165.42 18.2 165.54 18.256 165.636 18.368C165.748 18.464 165.804 18.584 165.804 18.728L165.78 18.896L160.26 34.208C160.18 34.432 160.052 34.624 159.876 34.784C159.7 34.928 159.468 35 159.18 35H153.588C153.3 35 153.068 34.928 152.892 34.784C152.716 34.624 152.596 34.456 152.532 34.28L146.964 18.896L146.94 18.728C146.94 18.584 146.988 18.464 147.084 18.368C147.196 18.256 147.324 18.2 147.468 18.2H152.532C152.82 18.2 153.052 18.288 153.228 18.464C153.42 18.624 153.548 18.8 153.612 18.992L156.372 28.184L159.132 18.992C159.196 18.784 159.316 18.6 159.492 18.44C159.668 18.28 159.908 18.2 160.212 18.2H165.276ZM180.027 30.08H184.371C184.547 30.08 184.699 30.144 184.827 30.272C184.955 30.4 185.019 30.552 185.019 30.728V34.352C185.019 34.528 184.955 34.68 184.827 34.808C184.699 34.936 184.547 35 184.371 35H169.155C168.979 35 168.827 34.936 168.699 34.808C168.571 34.68 168.507 34.528 168.507 34.352V30.728C168.507 30.552 168.571 30.4 168.699 30.272C168.827 30.144 168.979 30.08 169.155 30.08H173.547V23.12H169.155C168.979 23.12 168.827 23.056 168.699 22.928C168.571 22.8 168.507 22.648 168.507 22.472V18.848C168.507 18.672 168.571 18.52 168.699 18.392C168.827 18.264 168.979 18.2 169.155 18.2H184.371C184.547 18.2 184.699 18.264 184.827 18.392C184.955 18.52 185.019 18.672 185.019 18.848V22.472C185.019 22.648 184.955 22.8 184.827 22.928C184.699 23.056 184.547 23.12 184.371 23.12H180.027V30.08ZM194.945 28.52C194.945 29.176 195.161 29.68 195.593 30.032C196.041 30.384 196.641 30.56 197.393 30.56C198.065 30.56 198.561 30.448 198.881 30.224C199.201 30 199.473 29.664 199.697 29.216C199.905 28.8 200.185 28.592 200.537 28.592H205.721C205.865 28.592 205.985 28.648 206.081 28.76C206.193 28.856 206.249 28.976 206.249 29.12C206.249 30.096 205.921 31.056 205.265 32C204.609 32.928 203.609 33.704 202.265 34.328C200.937 34.936 199.313 35.24 197.393 35.24C195.681 35.24 194.153 34.984 192.809 34.472C191.481 33.944 190.425 33.144 189.641 32.072C188.857 30.984 188.465 29.632 188.465 28.016V25.184C188.465 23.568 188.857 22.224 189.641 21.152C190.425 20.064 191.481 19.264 192.809 18.752C194.153 18.224 195.681 17.96 197.393 17.96C199.313 17.96 200.937 18.272 202.265 18.896C203.609 19.504 204.609 20.28 205.265 21.224C205.921 22.152 206.249 23.104 206.249 24.08C206.249 24.224 206.193 24.352 206.081 24.464C205.985 24.56 205.865 24.608 205.721 24.608H200.537C200.185 24.608 199.905 24.4 199.697 23.984C199.473 23.536 199.201 23.2 198.881 22.976C198.561 22.752 198.065 22.64 197.393 22.64C196.641 22.64 196.041 22.816 195.593 23.168C195.161 23.52 194.945 24.024 194.945 24.68V28.52ZM225.32 30.32C225.496 30.32 225.648 30.384 225.776 30.512C225.904 30.64 225.968 30.792 225.968 30.968V34.352C225.968 34.528 225.904 34.68 225.776 34.808C225.648 34.936 225.496 35 225.32 35H210.152C209.976 35 209.824 34.936 209.696 34.808C209.568 34.68 209.504 34.528 209.504 34.352V18.848C209.504 18.672 209.568 18.52 209.696 18.392C209.824 18.264 209.976 18.2 210.152 18.2H225.08C225.256 18.2 225.408 18.264 225.536 18.392C225.664 18.52 225.728 18.672 225.728 18.848V22.232C225.728 22.408 225.664 22.56 225.536 22.688C225.408 22.816 225.256 22.88 225.08 22.88H215.744V24.392H223.76C223.936 24.392 224.088 24.456 224.216 24.584C224.344 24.712 224.408 24.864 224.408 25.04V28.16C224.408 28.336 224.344 28.488 224.216 28.616C224.088 28.744 223.936 28.808 223.76 28.808H215.744V30.32H225.32ZM92.992 58.52C92.992 59.176 93.208 59.68 93.64 60.032C94.088 60.384 94.688 60.56 95.44 60.56C96.112 60.56 96.608 60.448 96.928 60.224C97.248 60 97.52 59.664 97.744 59.216C97.952 58.8 98.232 58.592 98.584 58.592H103.768C103.912 58.592 104.032 58.648 104.128 58.76C104.24 58.856 104.296 58.976 104.296 59.12C104.296 60.096 103.968 61.056 103.312 62C102.656 62.928 101.656 63.704 100.312 64.328C98.984 64.936 97.36 65.24 95.44 65.24C93.728 65.24 92.2 64.984 90.856 64.472C89.528 63.944 88.472 63.144 87.688 62.072C86.904 60.984 86.512 59.632 86.512 58.016V55.184C86.512 53.568 86.904 52.224 87.688 51.152C88.472 50.064 89.528 49.264 90.856 48.752C92.2 48.224 93.728 47.96 95.44 47.96C97.36 47.96 98.984 48.272 100.312 48.896C101.656 49.504 102.656 50.28 103.312 51.224C103.968 52.152 104.296 53.104 104.296 54.08C104.296 54.224 104.24 54.352 104.128 54.464C104.032 54.56 103.912 54.608 103.768 54.608H98.584C98.232 54.608 97.952 54.4 97.744 53.984C97.52 53.536 97.248 53.2 96.928 52.976C96.608 52.752 96.112 52.64 95.44 52.64C94.688 52.64 94.088 52.816 93.64 53.168C93.208 53.52 92.992 54.024 92.992 54.68V58.52ZM123.367 60.32C123.543 60.32 123.695 60.384 123.823 60.512C123.951 60.64 124.015 60.792 124.015 60.968V64.352C124.015 64.528 123.951 64.68 123.823 64.808C123.695 64.936 123.543 65 123.367 65H108.199C108.023 65 107.871 64.936 107.743 64.808C107.615 64.68 107.551 64.528 107.551 64.352V48.848C107.551 48.672 107.615 48.52 107.743 48.392C107.871 48.264 108.023 48.2 108.199 48.2H123.127C123.303 48.2 123.455 48.264 123.583 48.392C123.711 48.52 123.775 48.672 123.775 48.848V52.232C123.775 52.408 123.711 52.56 123.583 52.688C123.455 52.816 123.303 52.88 123.127 52.88H113.791V54.392H121.807C121.983 54.392 122.135 54.456 122.263 54.584C122.391 54.712 122.455 54.864 122.455 55.04V58.16C122.455 58.336 122.391 58.488 122.263 58.616C122.135 58.744 121.983 58.808 121.807 58.808H113.791V60.32H123.367ZM143.493 48.2C143.669 48.2 143.821 48.264 143.949 48.392C144.077 48.52 144.141 48.672 144.141 48.848V64.352C144.141 64.528 144.077 64.68 143.949 64.808C143.821 64.936 143.669 65 143.493 65H139.629C139.245 65 138.925 64.832 138.669 64.496L133.437 57.824V64.352C133.437 64.528 133.373 64.68 133.245 64.808C133.117 64.936 132.965 65 132.789 65H128.325C128.149 65 127.997 64.936 127.869 64.808C127.741 64.68 127.677 64.528 127.677 64.352V48.848C127.677 48.672 127.741 48.52 127.869 48.392C127.997 48.264 128.149 48.2 128.325 48.2H132.213C132.597 48.2 132.909 48.36 133.149 48.68L138.381 55.904V48.848C138.381 48.672 138.445 48.52 138.573 48.392C138.701 48.264 138.853 48.2 139.029 48.2H143.493ZM164.652 48.2C164.828 48.2 164.98 48.264 165.108 48.392C165.236 48.52 165.3 48.672 165.3 48.848V52.712C165.3 52.888 165.236 53.04 165.108 53.168C164.98 53.296 164.828 53.36 164.652 53.36H159.492V64.352C159.492 64.528 159.428 64.68 159.3 64.808C159.172 64.936 159.02 65 158.844 65H153.9C153.724 65 153.572 64.936 153.444 64.808C153.316 64.68 153.252 64.528 153.252 64.352V53.36H148.092C147.916 53.36 147.764 53.296 147.636 53.168C147.508 53.04 147.444 52.888 147.444 52.712V48.848C147.444 48.672 147.508 48.52 147.636 48.392C147.764 48.264 147.916 48.2 148.092 48.2H164.652ZM184.539 60.32C184.715 60.32 184.867 60.384 184.995 60.512C185.123 60.64 185.187 60.792 185.187 60.968V64.352C185.187 64.528 185.123 64.68 184.995 64.808C184.867 64.936 184.715 65 184.539 65H169.371C169.195 65 169.043 64.936 168.915 64.808C168.787 64.68 168.723 64.528 168.723 64.352V48.848C168.723 48.672 168.787 48.52 168.915 48.392C169.043 48.264 169.195 48.2 169.371 48.2H184.299C184.475 48.2 184.627 48.264 184.755 48.392C184.883 48.52 184.947 48.672 184.947 48.848V52.232C184.947 52.408 184.883 52.56 184.755 52.688C184.627 52.816 184.475 52.88 184.299 52.88H174.963V54.392H182.979C183.155 54.392 183.307 54.456 183.435 54.584C183.563 54.712 183.627 54.864 183.627 55.04V58.16C183.627 58.336 183.563 58.488 183.435 58.616C183.307 58.744 183.155 58.808 182.979 58.808H174.963V60.32H184.539ZM206.681 64.256C206.713 64.32 206.729 64.392 206.729 64.472C206.729 64.616 206.673 64.744 206.561 64.856C206.465 64.952 206.345 65 206.201 65H200.753C200.529 65 200.321 64.944 200.129 64.832C199.953 64.72 199.825 64.576 199.745 64.4L197.633 59.648H195.617V64.352C195.617 64.528 195.553 64.68 195.425 64.808C195.297 64.936 195.145 65 194.969 65H189.785C189.609 65 189.457 64.936 189.329 64.808C189.201 64.68 189.137 64.528 189.137 64.352V48.848C189.137 48.672 189.201 48.52 189.329 48.392C189.457 48.264 189.609 48.2 189.785 48.2H199.121C200.561 48.2 201.817 48.432 202.889 48.896C203.977 49.36 204.809 50.032 205.385 50.912C205.961 51.792 206.249 52.824 206.249 54.008C206.249 56.184 205.409 57.76 203.729 58.736L206.681 64.256ZM198.617 55.208C198.969 55.208 199.241 55.096 199.433 54.872C199.625 54.632 199.721 54.336 199.721 53.984C199.721 53.632 199.625 53.328 199.433 53.072C199.257 52.8 198.985 52.664 198.617 52.664H195.617V55.208H198.617Z" fill="white"/>
</svg>
